<?xml version="1.0" encoding="UTF-8"?>
<svg id="Layer_2" data-name="Layer 2" xmlns="http://www.w3.org/2000/svg" width="457.82" height="110" viewBox="0 0 457.82 110">
  <g id="Layer_1-2" data-name="Layer 1">
    <g>
      <path d="M457.82,32.21v1.14l-22.92,29.01v-.12c-3.05,4.31-6.47,7.46-10.27,9.43-3.81,1.97-8.44,2.95-13.91,2.95-7.37,0-13.32-2.15-17.91-6.44-4.59-4.31-6.89-9.87-6.89-16.74,0-8.32,2.86-14.45,8.6-18.33,5.74-3.89,14.73-5.85,26.99-5.85h13.39v-1.77c0-3.6-1.4-6.22-4.24-7.89-2.84-1.66-7.25-2.51-13.26-2.51-4.87,0-9.4,.47-13.57,1.45-4.19,.98-8.08,2.44-11.67,4.4V3.62c4.87-1.19,9.74-2.08,14.66-2.71,4.89-.6,9.82-.91,14.7-.91,12.83,0,22.08,2.54,27.77,7.58,5.7,5.05,8.54,13.25,8.54,24.63m-34.7,8.58c-4.74,0-8.29,.8-10.7,2.41-2.39,1.62-3.58,3.98-3.58,7.12,0,2.88,.96,5.13,2.88,6.76,1.93,1.63,4.6,2.45,8.02,2.45,4.29,0,7.86-1.54,10.78-4.62,2.93-3.05,4.38-6.9,4.38-11.51v-2.6h-11.78Z" fill="#3b4659"/>
      <polygon points="308.65 1.71 331.37 1.71 349.06 50.82 366.69 1.71 389.48 1.71 361.5 72.78 336.56 72.78 308.65 1.71" fill="#3b4659"/>
      <path d="M273.17,0c12.23,0,21.8,3.29,28.66,9.9,6.86,6.61,10.3,15.73,10.3,27.4s-3.44,20.82-10.3,27.42c-6.86,6.6-16.43,9.9-28.66,9.9s-21.85-3.3-28.76-9.9c-6.91-6.61-10.38-15.73-10.38-27.42s3.47-20.79,10.38-27.4c6.91-6.61,16.51-9.9,28.76-9.9m0,16.25c-5.02,0-8.86,1.79-11.5,5.41-2.64,3.62-3.96,8.83-3.96,15.64s1.32,12.04,3.96,15.66c2.64,3.61,6.47,5.42,11.5,5.42s8.74-1.8,11.35-5.42c2.62-3.61,3.94-8.84,3.94-15.66s-1.33-12.02-3.94-15.64c-2.62-3.62-6.39-5.41-11.35-5.41" fill="#3b4659"/>
      <path d="M229.35,29.5v43.28h-22.85V39.66c0-6.13-.13-10.38-.4-12.7-.29-2.32-.77-4.03-1.44-5.13-.89-1.49-2.1-2.64-3.61-3.47-1.52-.82-3.25-1.24-5.2-1.24-4.74,0-8.47,1.82-11.18,5.48-2.7,3.66-4.05,8.73-4.05,15.21v34.96h-22.72V39.21l22.72-27.15v.07c3.42-4.16,7.07-7.22,10.92-9.19,3.85-1.96,8.1-2.95,12.76-2.95,8.21,0,14.42,2.51,18.69,7.56,4.25,5.02,6.37,12.34,6.37,21.94" fill="#3b4659"/>
      <path d="M147.9,29.5v43.28h-22.85V39.66c0-6.13-.13-10.38-.41-12.7-.28-2.32-.76-4.03-1.43-5.13-.89-1.49-2.11-2.64-3.62-3.47-1.51-.82-3.24-1.24-5.19-1.24-4.75,0-8.47,1.82-11.17,5.48-2.71,3.66-4.05,8.73-4.05,15.21v34.96h-22.72V39.23l22.72-27.15v.05c3.42-4.16,7.05-7.22,10.92-9.19,3.85-1.96,8.1-2.95,12.75-2.95,8.21,0,14.42,2.51,18.7,7.56,4.24,5.02,6.37,12.34,6.37,21.94" fill="#ee7d00"/>
      <path d="M1.26,42.41v-1.15L24.17,12.25v.12c3.05-4.31,6.48-7.46,10.26-9.43C38.25,.98,42.88,0,48.34,0,55.71,0,61.66,2.15,66.25,6.43c4.6,4.31,6.89,9.88,6.89,16.75,0,8.31-2.86,14.44-8.6,18.33-5.74,3.9-14.73,5.84-27,5.84h-13.38v1.78c0,3.6,1.41,6.22,4.24,7.88,2.83,1.67,7.25,2.52,13.25,2.52,4.87,0,9.4-.48,13.58-1.45,4.18-.98,8.08-2.45,11.68-4.4v17.34c-4.87,1.18-9.75,2.07-14.67,2.69-4.89,.61-9.81,.92-14.71,.92-12.82,0-22.06-2.54-27.76-7.58C4.09,61.99,1.26,53.79,1.26,42.41m34.69-8.58c4.74,0,8.3-.81,10.7-2.41,2.39-1.62,3.57-3.98,3.57-7.13,0-2.88-.95-5.13-2.88-6.75-1.92-1.63-4.59-2.45-8.01-2.45-4.29,0-7.87,1.54-10.79,4.61-2.92,3.05-4.37,6.91-4.37,11.52v2.6h11.78Z" fill="#ef7d00"/>
      <path d="M243.77,109.67l-2.29-5.43c-.62-1.48-1.49-2.21-2.59-2.21h-1.45v7.64h-3.13v-18.84h6.08c1.98,0,3.51,.45,4.59,1.36,1.09,.9,1.62,2.13,1.62,3.73,0,1.28-.36,2.38-1.06,3.29-.71,.92-1.74,1.55-3.07,1.91v.05c.8,.28,1.51,1.06,2.13,2.35l2.88,6.15h-3.73Zm-6.33-16.22v5.95h2.45c1.01,0,1.84-.3,2.48-.89,.64-.6,.96-1.37,.96-2.29,0-.86-.29-1.55-.88-2.04-.59-.49-1.42-.73-2.5-.73h-2.5Zm26.61,16.22v-18.84h10.2v2.7h-7.07v5.3h6.57v2.69h-6.57v5.46h7.49v2.69h-10.62Zm26.55-.77v-3.42c.56,.53,1.3,.98,2.21,1.32,.92,.36,1.79,.53,2.63,.53,2.02,0,3.03-.78,3.03-2.35,0-.65-.26-1.25-.75-1.78-.5-.54-1.5-1.2-2.97-1.98-1.41-.76-2.47-1.54-3.16-2.38-.69-.84-1.04-1.86-1.04-3.06,0-1.56,.59-2.83,1.78-3.81,1.18-.97,2.71-1.48,4.6-1.48,1.6,0,2.97,.25,4.09,.74v3.28c-1.12-.9-2.48-1.35-4.06-1.35-.94,0-1.69,.23-2.24,.66-.55,.44-.83,1.01-.83,1.71,0,.67,.18,1.24,.55,1.7,.37,.46,1.27,1.07,2.72,1.85,1.66,.86,2.86,1.73,3.58,2.6,.73,.86,1.09,1.87,1.09,3,0,1.62-.59,2.92-1.75,3.86-1.16,.97-2.83,1.44-4.98,1.44-.77,0-1.61-.12-2.49-.33-.9-.23-1.56-.48-2-.77m28.22,.77v-18.84h10.19v2.7h-7.07v5.3h6.57v2.69h-6.57v5.46h7.5v2.69h-10.62Zm39.93,0l-1.73-4.76h-7.53l-1.64,4.76h-3.42l7.14-18.84h3.47l7.16,18.84h-3.44Zm-5.2-14.66c-.11-.3-.2-.75-.26-1.35h-.09c-.05,.5-.15,.95-.27,1.35l-2.58,7.27h5.77l-2.58-7.27Zm34.15,14.66l-2.29-5.43c-.62-1.48-1.48-2.21-2.6-2.21h-1.44v7.64h-3.12v-18.84h6.08c1.98,0,3.51,.45,4.59,1.36,1.08,.9,1.62,2.13,1.62,3.73,0,1.28-.35,2.38-1.07,3.29-.7,.92-1.72,1.55-3.07,1.91v.05c.81,.28,1.51,1.06,2.13,2.35l2.87,6.15h-3.71Zm-6.32-16.22v5.95h2.45c1.02,0,1.85-.3,2.48-.89,.64-.6,.96-1.37,.96-2.29,0-.86-.29-1.55-.87-2.04-.59-.49-1.42-.73-2.51-.73h-2.5Zm39.47,15.42c-1.45,.75-3.23,1.13-5.36,1.13-2.77,0-4.97-.86-6.6-2.57-1.62-1.72-2.44-3.98-2.44-6.8,0-3,.93-5.42,2.78-7.3,1.85-1.88,4.2-2.83,7.04-2.83,1.87,0,3.4,.27,4.59,.79v3.18c-1.37-.78-2.86-1.18-4.5-1.18-1.95,0-3.54,.64-4.77,1.92-1.23,1.29-1.84,3.04-1.84,5.24s.57,3.73,1.71,4.95c1.14,1.21,2.65,1.82,4.55,1.82s3.44-.44,4.85-1.33v2.97Zm29.1,.8v-8.15h-8.8v8.15h-3.14v-18.84h3.14v7.93h8.8v-7.93h3.14v18.84h-3.14Z" fill="#3b4659"/>
      <path d="M209.32,90.84l2.29,5.44c.62,1.47,1.49,2.21,2.58,2.21h1.45v-7.65h3.12v18.84h-6.09c-1.97,0-3.5-.45-4.59-1.34-1.08-.9-1.62-2.15-1.62-3.74,0-1.27,.35-2.38,1.05-3.3,.71-.92,1.74-1.56,3.08-1.9v-.06c-.8-.28-1.51-1.06-2.12-2.34l-2.88-6.16h3.72Zm6.33,16.23v-5.95h-2.45c-1.02,0-1.85,.29-2.49,.89-.63,.59-.96,1.37-.96,2.29,0,.87,.29,1.55,.89,2.04,.59,.49,1.42,.74,2.51,.74h2.5Zm-26.62-16.23v18.84h-10.2v-2.69h7.08v-5.31h-6.57v-2.69h6.57v-5.47h-7.5v-2.69h10.62Zm-26.55,.78v3.42c-.57-.54-1.29-.98-2.21-1.33-.92-.35-1.78-.53-2.63-.53-2.01,0-3.02,.79-3.02,2.35,0,.65,.25,1.25,.75,1.79,.5,.53,1.49,1.2,2.97,1.97,1.41,.75,2.46,1.54,3.16,2.39,.69,.84,1.04,1.85,1.04,3.07,0,1.55-.59,2.82-1.78,3.8-1.18,.97-2.71,1.46-4.61,1.46-1.59,0-2.96-.23-4.08-.72v-3.29c1.12,.9,2.48,1.35,4.06,1.35,.94,0,1.69-.22,2.25-.66,.55-.44,.83-1,.83-1.71,0-.67-.18-1.23-.55-1.7-.36-.45-1.29-1.07-2.73-1.84-1.66-.87-2.85-1.73-3.57-2.61-.73-.86-1.09-1.86-1.09-2.99,0-1.61,.58-2.92,1.74-3.87,1.16-.96,2.83-1.45,4.98-1.45,.77,0,1.6,.12,2.5,.34,.9,.21,1.56,.48,1.99,.77m-28.22-.78v18.84h-10.2v-2.69h7.07v-5.31h-6.57v-2.69h6.57v-5.47h-7.5v-2.69h10.63Zm-39.92,0l1.72,4.76h7.54l1.64-4.76h3.41l-7.13,18.84h-3.47l-7.16-18.84h3.44Zm5.2,14.67c.1,.3,.2,.75,.27,1.35h.07c.05-.51,.15-.95,.28-1.35l2.58-7.27h-5.78l2.59,7.27Zm-34.16-14.67l2.28,5.44c.63,1.47,1.49,2.21,2.59,2.21h1.46v-7.65h3.11v18.84h-6.09c-1.97,0-3.5-.45-4.58-1.34-1.09-.9-1.62-2.15-1.62-3.74,0-1.27,.36-2.38,1.07-3.3,.7-.92,1.73-1.56,3.07-1.9v-.06c-.8-.28-1.51-1.06-2.13-2.34l-2.87-6.16h3.72Zm6.33,16.23v-5.95h-2.45c-1.02,0-1.84,.29-2.48,.89s-.97,1.37-.97,2.29c0,.87,.3,1.55,.89,2.04,.58,.49,1.42,.74,2.51,.74h2.51Zm-39.46-15.42c1.44-.75,3.23-1.14,5.35-1.14,2.77,0,4.98,.87,6.6,2.58,1.63,1.71,2.44,3.97,2.44,6.8,0,2.98-.92,5.41-2.77,7.3-1.86,1.88-4.2,2.82-7.04,2.82-1.88,0-3.39-.25-4.58-.77v-3.18c1.35,.78,2.85,1.18,4.49,1.18,1.95,0,3.54-.64,4.77-1.94,1.24-1.29,1.85-3.03,1.85-5.22s-.57-3.73-1.71-4.95c-1.15-1.22-2.67-1.83-4.56-1.83s-3.45,.45-4.84,1.33v-2.96Zm-29.1-.81v8.16H11.95v-8.16h3.12v18.84h-3.12v-7.92H3.15v7.92H0v-18.84H3.15Z" fill="#ef7d00"/>
    </g>
  </g>
</svg>