<svg class="fill-green w-full h-auto" xmlns="http://www.w3.org/2000/svg" viewBox="0 0 153.38 47.12"><path fill="#4fb8ab" d="M123,0H59.14A16.64,16.64,0,0,0,42.5,16.63V29.11l5.35-13.18q.46-1,1.2-1a1.82,1.82,0,0,1,1.22.43,1.24,1.24,0,0,1,.48.92,1.68,1.68,0,0,1-.15.77l-7.39,18.2A16.61,16.61,0,0,0,59.14,47.12H123a16.6,16.6,0,0,0,11.75-4.88l18.61-18.68L134.75,4.88A16.6,16.6,0,0,0,123,0ZM81.31,34.57a2.19,2.19,0,0,1-.79,1.78,2.52,2.52,0,0,1-3.14,0,2.18,2.18,0,0,1-.8-1.78V19.33L69.74,34.47A2.93,2.93,0,0,1,67,36.32H67a3,3,0,0,1-2.71-1.85L57.42,19.33V34.57a2.2,2.2,0,0,1-.8,1.78,2.51,2.51,0,0,1-3.13,0,2.13,2.13,0,0,1-.82-1.78V14.29c0-2.19,1.08-3,2.06-3.41a4.3,4.3,0,0,1,3.69.52A7.5,7.5,0,0,1,60,13.76l7,15.85,7-15.85a7.5,7.5,0,0,1,1.57-2.36,4.27,4.27,0,0,1,3.69-.52c1,.36,2.06,1.22,2.06,3.41Zm19.85-9.78H87.33q.19,5.19,4,6.72a7.74,7.74,0,0,0,2.43.36,10.15,10.15,0,0,0,5.79-2.09,1.16,1.16,0,0,1,1.52.1.58.58,0,0,1,.2.61,1.25,1.25,0,0,1-.36,1,9.75,9.75,0,0,1-7.39,2.77,8.78,8.78,0,0,1-6.72-2.72A9.87,9.87,0,0,1,84,24.18a10.39,10.39,0,0,1,2.33-7,8.32,8.32,0,0,1,6.89-3.05,8.6,8.6,0,0,1,6.8,2.7,10.06,10.06,0,0,1,2.34,6.77C102.38,24.34,102,24.73,101.16,24.79ZM111,34.24l0,0a4.48,4.48,0,0,1-3.8-1.47,9.28,9.28,0,0,1-1.31-5.19V16.92h-2.24a1.22,1.22,0,0,1-.92-.38,1.14,1.14,0,0,1-.36-.79,1.35,1.35,0,0,1,.3-.81,1.19,1.19,0,0,1,1-.41h2.44l.2-5.54a1.37,1.37,0,0,1,.55-.92,1.72,1.72,0,0,1,.93-.33,1.29,1.29,0,0,1,.87.31,1.21,1.21,0,0,1,.35.92v5.55h3.5a1.12,1.12,0,0,1,.92.4,1.24,1.24,0,0,1,.34.82,1.21,1.21,0,0,1-.34.84,1.28,1.28,0,0,1-.92.32H109v9a22.24,22.24,0,0,0,.25,4.54,1.84,1.84,0,0,0,.81,1.1,2.86,2.86,0,0,0,1.37.31l2-.16a1.14,1.14,0,0,1,1.16,1C114.61,33.73,113.41,34.24,111,34.24Zm21.39-1.75a1.2,1.2,0,0,1-.46,1,1.61,1.61,0,0,1-1,.35,1.77,1.77,0,0,1-1-.3,1.12,1.12,0,0,1-.45-1V30.69A5.79,5.79,0,0,1,125.1,34a9,9,0,0,1-4.59-.1,5.74,5.74,0,0,1-2.11-1.12,5.29,5.29,0,0,1-1.85-4.27q0-6.41,10.8-6.41c.71,0,1.43,0,2.14.05V20.53c0-2.64-1.48-4-4.42-4a8.56,8.56,0,0,0-2.89.35,15.19,15.19,0,0,0-2.33,1,2.42,2.42,0,0,1-1.12.44,1.2,1.2,0,0,1-.76-.31,1,1,0,0,1-.36-.81,1.1,1.1,0,0,1,.47-.81c1.59-1.53,3.94-2.29,7-2.3q5.35,0,6.89,3.62a7.79,7.79,0,0,1,.51,2.94Z"></path><path fill="#4fb8ab" d="M125.16,24.13v0a12.57,12.57,0,0,0-2.2.25,7.15,7.15,0,0,0-1.84.68,3.29,3.29,0,0,0-1.85,3,2.87,2.87,0,0,0,1.36,2.52,5.12,5.12,0,0,0,3,.86A6.19,6.19,0,0,0,127.7,30a5.85,5.85,0,0,0,1.66-4.23V24a18,18,0,0,1-1.94.11Z"></path><path fill="#4fb8ab" d="M92.73,16.63a5.4,5.4,0,0,0-4.15,1.92,7.74,7.74,0,0,0-1.73,4.55h12a7.69,7.69,0,0,0-1.78-4.76A5.53,5.53,0,0,0,92.73,16.63Z"></path><path fill="#4fb8ab" d="M15.8,18.75a7.72,7.72,0,0,1,6.94-4c3.11,0,5.2,1.3,6.25,3.89A9.57,9.57,0,0,1,29.54,22V32.73a1.26,1.26,0,0,1-.47,1.05,1.69,1.69,0,0,1-1,.35A1.66,1.66,0,0,1,27,33.75a1.25,1.25,0,0,1-.48-1V21.82a4.83,4.83,0,0,0-1.31-3.59A4.45,4.45,0,0,0,22,17.14c-2.55,0-4.28,1-5.18,3.1A6.48,6.48,0,0,0,16.32,23v9.7a1.22,1.22,0,0,1-.47,1.05,1.69,1.69,0,0,1-1,.35,1.65,1.65,0,0,1-1.08-.37,1.2,1.2,0,0,1-.48-1V21.82A5,5,0,0,0,12,18.26a4,4,0,0,0-2.77-1.09,7.67,7.67,0,0,0-2.6.39A4.73,4.73,0,0,0,4.8,18.71a6.32,6.32,0,0,0-1.7,4.51v9.6a1.17,1.17,0,0,1-.5,1,1.91,1.91,0,0,1-1,.32,1.81,1.81,0,0,1-1-.37,1.2,1.2,0,0,1-.55-1V16.63a1.27,1.27,0,0,1,.5-1,1.6,1.6,0,0,1,.92-.4,1.74,1.74,0,0,1,.71.12,3,3,0,0,1,.45.28,1.28,1.28,0,0,1,.51,1v1.8a5.19,5.19,0,0,1,2.59-2.67,8,8,0,0,1,3.87-.93A6.48,6.48,0,0,1,14.78,17a7.18,7.18,0,0,1,1,1.79"></path><path fill="#4fb8ab" d="M41.85,30.28V28.93l-.58,1.48L35.42,15.8a1.52,1.52,0,0,0-1.47-1,3,3,0,0,0-1.12.51.86.86,0,0,0-.34.39,1.19,1.19,0,0,0-.15.58,1.31,1.31,0,0,0,.15.61l7.24,17-2.19,5.74a1.26,1.26,0,0,0-.15.66,1.39,1.39,0,0,0,.6.93,1.53,1.53,0,0,0,1,.3,1.46,1.46,0,0,0,1.37-1L42.52,35a17.46,17.46,0,0,1-.65-4.72"></path></svg>